<?xml version="1.0" encoding="UTF-8"?>
<svg width="22px" height="22px" viewBox="0 0 22 22" version="1.1" xmlns="http://www.w3.org/2000/svg" xmlns:xlink="http://www.w3.org/1999/xlink">
    <!-- Generator: Sketch 61.2 (89653) - https://sketch.com -->
    <title>Path</title>
    <desc>Created with Sketch.</desc>
    <g id="Page-1" stroke="none" stroke-width="1" fill="none" fill-rule="evenodd">
        <g id="Artboard" transform="translate(-4.000000, -4.000000)" fill="#FFFFFF">
            <path d="M6.51471863,5.10050506 L14.9996118,13.5846118 L23.4852814,5.10050506 C23.8758057,4.70998077 24.5089706,4.70998077 24.8994949,5.10050506 C25.2900192,5.49102936 25.2900192,6.12419433 24.8994949,6.51471863 L16.4136118,14.9996118 L24.8994949,23.4852814 C25.2900192,23.8758057 25.2900192,24.5089706 24.8994949,24.8994949 C24.5089706,25.2900192 23.8758057,25.2900192 23.4852814,24.8994949 L14.9996118,16.4136118 L6.51471863,24.8994949 C6.12419433,25.2900192 5.49102936,25.2900192 5.10050506,24.8994949 C4.70998077,24.5089706 4.70998077,23.8758057 5.10050506,23.4852814 L13.5846118,14.9996118 L5.10050506,6.51471863 C4.70998077,6.12419433 4.70998077,5.49102936 5.10050506,5.10050506 C5.49102936,4.70998077 6.12419433,4.70998077 6.51471863,5.10050506 Z" id="Path"></path>
        </g>
    </g>
</svg>