<svg width="200px" height="200px" viewBox="0 0 200 200" version="1.1" xmlns="http://www.w3.org/2000/svg"
     xmlns:xlink="http://www.w3.org/1999/xlink">
    <path d="M0,120 L80,200 L0,200 L0,120 Z M135,1 C162.65129,1.13100856 166,1 195,7 L178,48 C158,44 145,44 138,44 C131,44 109,48 106,57 C103,66 107,72 126.808511,76.7932489 C171.633936,87.6400727 200,98.4528833 200,135.302391 C200,169.419424 178.816041,200 143,200 C138,200 143.470258,199.69439 139,200 L93,155 C105.666667,155.666667 115.434806,155.570558 122.304419,154.711674 C137.1615,152.854144 145.106383,149.648383 145.106383,141.209564 C145.106383,131.926864 138.350245,130.520394 111.607201,124.331927 C87.8713903,118.919776 67.2005568,113.057233 53.7267356,101.697831 C49.2422452,97.8992769 47.6666667,95 49,93 L135,1 Z M80,0 L0,80 L0,0 L80,0 Z"
          id="KS-icon" fill="#000000"></path>
</svg>