<?xml version="1.0" encoding="UTF-8"?>
<svg width="28px" height="16px" viewBox="0 0 28 16" version="1.1" xmlns="http://www.w3.org/2000/svg" xmlns:xlink="http://www.w3.org/1999/xlink">
    <!-- Generator: Sketch 61.2 (89653) - https://sketch.com -->
    <title>Combined Shape</title>
    <desc>Created with Sketch.</desc>
    <g id="Page-1" stroke="none" stroke-width="1" fill="none" fill-rule="evenodd">
        <g id="Artboard" transform="translate(-1.000000, -7.000000)" fill="#FFFFFF">
            <path d="M28,21 C28.5522847,21 29,21.4477153 29,22 C29,22.5522847 28.5522847,23 28,23 L2,23 C1.44771525,23 1,22.5522847 1,22 C1,21.4477153 1.44771525,21 2,21 L28,21 Z M28,14 C28.5522847,14 29,14.4477153 29,15 C29,15.5522847 28.5522847,16 28,16 L2,16 C1.44771525,16 1,15.5522847 1,15 C1,14.4477153 1.44771525,14 2,14 L28,14 Z M28,7 C28.5522847,7 29,7.44771525 29,8 C29,8.55228475 28.5522847,9 28,9 L2,9 C1.44771525,9 1,8.55228475 1,8 C1,7.44771525 1.44771525,7 2,7 L28,7 Z" id="Combined-Shape"></path>
        </g>
    </g>
</svg>