
<svg width="140px" height="40px" viewBox="0 0 140 40" version="1.1" xmlns="http://www.w3.org/2000/svg" xmlns:xlink="http://www.w3.org/1999/xlink">
    <g id="Symbols" stroke="none" stroke-width="1" fill="none" fill-rule="evenodd">
        <g id="Identity/Logo" fill="#000000" fill-rule="nonzero">
            <path d="M13.6044273,0 C18.8980053,0 22.8328392,2.26032972 25.4090472,6.78105697 C25.8854692,7.65957886 26.2736591,8.49233191 26.5736285,9.27934111 C26.8735979,10.0663503 27.0765154,10.8350454 27.1823869,11.5854496 C27.39413,13.0496527 27.5,15.8590504 27.5,20.0137268 C27.5,24.4612439 27.3500175,27.4445131 27.0500481,28.9636239 C26.908886,29.7323305 26.6971461,30.4781478 26.4148219,31.2010981 C26.1324978,31.9240485 25.7619529,32.6424124 25.3031761,33.3562114 L25.3031761,33.3287577 C24.1562342,35.2139193 22.5681847,36.7970652 20.5389798,38.078243 C18.4744844,39.3594207 16.039475,40 13.2338787,40 L0.31761309,40 C0.105869971,40 0,39.8901864 0,39.6705559 L0,0.329444063 C0,0.10981359 0.105869971,0 0.31761309,0 L13.6044273,0 Z M48.8058294,1.0658141e-14 C49.1586996,9.1500299e-15 49.4854484,0.18597584 49.6656328,0.489374877 L53.125,6.31434454 L37.6595745,6.31434454 L37.6595745,16.8565546 L53.1914894,16.8565546 C53.4042564,16.8565546 53.5106383,16.9663682 53.5106383,17.1859986 L53.5106383,22.512011 C53.5106383,22.7133389 53.4042564,22.8140014 53.1914894,22.8140014 L37.6595745,22.8140014 L37.6595745,33.7405628 L53.125,33.7405628 L49.6662053,39.5139251 C49.4855606,39.8154541 49.1598702,40 48.8083702,40 L31.5691489,40 C31.3563819,40 31.25,39.8901864 31.25,39.6705559 L31.25,0.329444063 C31.25,0.10981359 31.3563819,1.0658141e-14 31.5691489,1.0658141e-14 L48.8058294,1.0658141e-14 Z M60.6077453,0 C60.7214248,0 60.8161563,0.0549067948 60.8919427,0.164722032 L68.7357901,13.3424846 C70.0431046,11.1461798 71.3503994,8.9544836 72.6577139,6.76733013 C73.9650283,4.58017666 75.2723232,2.37932931 76.5796376,0.164722032 C76.655424,0.0549067948 76.7501555,0 76.863835,0 L83.8550903,0 C83.9877165,0 84.082448,0.0503312286 84.1392877,0.150995196 C84.1961275,0.251659163 84.1866543,0.366048318 84.110868,0.494166095 L72.5440349,19.4921071 C74.6281594,22.8414718 76.6933063,26.1770596 78.7395376,29.4989705 C80.785769,32.8208814 82.8509159,36.1564692 84.9350404,39.5058339 C85.0108267,39.6339517 85.0202999,39.7483408 84.9634601,39.8490048 C84.9066203,39.9496688 84.8024157,40 84.650843,40 L77.6595876,40 C77.5459081,40 77.4511766,39.9450932 77.3753903,39.835278 L68.7357901,25.6691833 C67.2958496,28.0485134 65.8559306,30.4095056 64.4159901,32.7522306 C62.9760495,35.0949557 61.5361306,37.4559478 60.09619,39.835278 C60.0204037,39.9450932 59.9256722,40 59.8119926,40 L52.849157,40 C52.6975843,40 52.5933797,39.9496688 52.5365399,39.8490048 C52.4797001,39.7483408 52.4891733,39.6339517 52.5649596,39.5058339 L64.9275453,19.4921071 C62.976047,16.3074652 61.0435242,13.1411734 59.1299189,9.99313658 C57.2163137,6.84509979 55.2932641,3.67880796 53.3607123,0.494166095 C53.2849259,0.366048318 53.2754528,0.251659163 53.3322925,0.150995196 C53.3891323,0.0503312286 53.4838638,0 53.6164899,0 L60.6077453,0 Z M105.930851,6.75015599e-14 C106.143618,6.75015599e-14 106.25,0.10981359 106.25,0.329444063 L106.25,5.98490048 C106.25,6.20453095 106.143618,6.31434454 105.930851,6.31434454 L87.6595745,6.31434454 L87.6595745,16.8565546 L103.191489,16.8565546 C103.404256,16.8565546 103.510638,16.9663682 103.510638,17.1859986 L103.510638,22.512011 C103.510638,22.7133389 103.404256,22.8140014 103.191489,22.8140014 L87.6595745,22.8140014 L87.6595745,33.7405628 L105.930851,33.7405628 C106.143618,33.7405628 106.25,33.8503764 106.25,34.0700069 L106.25,39.6705559 C106.25,39.8901864 106.143618,40 105.930851,40 L88.6811277,39.6808454 C88.3353228,39.6744473 88.0173743,39.4898143 87.8404202,39.1926457 L81.3907936,28.3614423 C81.298644,28.2066904 81.25,28.0299234 81.25,27.8498131 L81.25,11.5313657 C81.25,11.347361 81.3007689,11.1669236 81.3967182,11.0099157 L87.8325528,0.478549991 C88.0142084,0.181295314 88.3374683,6.8009643e-14 88.6858346,6.75015599e-14 L105.930851,6.75015599e-14 Z M126.013041,1.42108547e-14 C127.7457,1.42108547e-14 129.310659,0.233353878 130.707964,0.700068634 C132.10527,1.16678339 133.325565,1.83024049 134.368887,2.69045985 C134.909178,3.18462841 135.426173,3.74742306 135.919888,4.37886067 C136.413603,5.01029828 136.851418,5.69205765 137.233349,6.42415923 C137.615279,7.15626081 137.918024,7.93410707 138.141593,8.75772135 C138.365162,9.58133562 138.476944,10.4323909 138.476944,11.3109128 C138.476944,12.6103931 138.29064,13.8412205 137.918025,15.0034317 C137.54541,16.165643 137.023757,17.2500522 136.353051,18.2566918 C135.663713,19.1901213 134.862603,20.0091477 133.949697,20.7137955 C133.036791,21.4184432 132.0028,21.9812379 130.847694,22.4021963 C132.356784,25.2390899 133.875167,28.0896677 135.402888,30.9540151 C136.930608,33.8183625 138.448991,36.6689403 139.958081,39.5058339 C140.013973,39.6339517 140.013973,39.7483408 139.958081,39.8490048 C139.902189,39.9496688 139.809036,40 139.678621,40 L132.468561,40 C132.412668,40 132.356777,39.9771222 132.300885,39.9313658 C132.244993,39.8856095 132.198416,39.8444294 132.161155,39.8078243 L123.972985,23.1983528 L116.734979,23.1983528 L116.734979,39.6705559 C116.734979,39.8901864 116.623196,40 116.399627,40 L110.335352,40 C110.111783,40 110,39.8901864 110,39.6705559 L110,0.329444063 C110,0.10981359 110.111783,1.42108547e-14 110.335352,1.42108547e-14 L126.013041,1.42108547e-14 Z M12.9692012,6.31434454 L6.37872955,6.31434454 L6.37872955,33.7405628 L12.9692012,33.7405628 C16.0041859,33.7405628 18.2627452,32.6424269 19.7449471,30.4461222 C20.3272406,29.4760876 20.6977855,28.4603119 20.8565929,27.3987646 C20.9448192,26.8130833 21.0109879,25.929999 21.0551011,24.7494852 C21.0992142,23.5689714 21.1212705,22.0636102 21.1212705,20.2333562 C21.1212705,18.4580099 21.094803,16.9755264 21.0418672,15.7858614 C20.9889314,14.5961963 20.9183514,13.6536296 20.8301251,12.9581332 C20.6536725,11.6769554 20.2037251,10.5147616 19.4802695,9.47151682 C17.9804224,7.36672478 15.810088,6.31434454 12.9692012,6.31434454 Z M125.957149,5.95744681 L116.734979,5.95744681 L116.734979,17.240906 L125.593852,17.240906 C127.755018,17.240906 129.375868,16.6552335 130.456451,15.483871 C131.537034,14.3125084 132.077317,12.9215363 132.077317,11.3109128 C132.077317,10.3957859 131.9143,9.58133507 131.588263,8.86753603 C131.262225,8.15373699 130.791805,7.56806452 130.176991,7.11050103 C129.6367,6.74445024 129.007921,6.46076513 128.290638,6.2594372 C127.573354,6.05810927 126.795533,5.95744681 125.957149,5.95744681 Z" id="Logo"></path>
        </g>
    </g>
</svg>