<?xml version="1.0" standalone="no"?>
<!DOCTYPE svg PUBLIC "-//W3C//DTD SVG 20010904//EN"
 "http://www.w3.org/TR/2001/REC-SVG-20010904/DTD/svg10.dtd">
<svg version="1.0" xmlns="http://www.w3.org/2000/svg"
 width="342.000000pt" height="342.000000pt" viewBox="0 0 342.000000 342.000000"
 preserveAspectRatio="xMidYMid meet">
<metadata>
Created by potrace 1.11, written by Peter Selinger 2001-2013
</metadata>
<g transform="translate(0.000000,342.000000) scale(0.100000,-0.100000)"
fill="#000000" stroke="none">
<path d="M0 2746 l0 -677 664 663 c365 365 663 664 662 665 -1 1 -130 5 -287
7 -156 2 -454 8 -661 12 l-378 7 0 -677z"/>
<path d="M2318 3392 c-16 -2 -41 -19 -60 -42 -19 -21 -88 -95 -154 -165 -65
-70 -130 -139 -143 -154 -42 -46 -325 -348 -488 -521 -34 -36 -74 -78 -88 -95
-15 -16 -55 -59 -89 -95 -300 -320 -435 -471 -457 -512 -6 -11 -6 -25 -1 -34
20 -36 102 -111 172 -156 185 -122 398 -198 895 -318 346 -84 464 -122 517
-169 39 -35 42 -41 46 -99 5 -75 -8 -110 -58 -156 -84 -75 -232 -105 -560
-113 -129 -3 -236 -7 -238 -8 -3 -2 365 -368 494 -491 34 -33 99 -95 146 -140
125 -120 120 -118 239 -110 232 14 409 91 575 249 154 145 266 361 310 594 24
127 16 444 -13 523 -72 197 -171 312 -368 428 -155 92 -348 161 -734 267 -377
102 -458 148 -474 268 -21 158 143 271 465 318 115 17 372 5 588 -26 96 -14
176 -25 178 -25 16 0 287 654 279 673 -6 16 -203 56 -398 81 -142 19 -515 37
-581 28z"/>
<path d="M0 675 l0 -678 428 7 c235 4 493 8 574 10 104 2 145 0 141 -8 -5 -8
-3 -8 8 0 8 6 49 11 92 10 44 -1 80 1 82 4 2 3 -295 305 -661 670 l-664 664 0
-679z"/>
</g>
</svg>
